<?xml version="1.0" encoding="UTF-8"?>
<svg width="24px" height="29px" viewBox="0 0 24 29" version="1.1" xmlns="http://www.w3.org/2000/svg" xmlns:xlink="http://www.w3.org/1999/xlink">
    <!-- Generator: Sketch 60.1 (88133) - https://sketch.com -->
    <title>arrow</title>
    <desc>Created with Sketch.</desc>
    <g id="Page-1" stroke="none" stroke-width="1" fill="none" fill-rule="evenodd">
        <g id="IMGNRY-Large-Copy-5" transform="translate(-708.000000, -734.000000)" fill="#FFFFFF">
            <path d="M716.016227,735.015 L714.15404,748.645 L709.188208,748.645 C708.722661,748.645 708.257114,748.935 708.101932,749.225 C707.94675,749.66 707.94675,750.095 708.257114,750.385 L718.96469,762.565 C719.119873,762.855 719.585419,763 719.895784,763 C720.206148,763 720.516513,762.855 720.826877,762.565 L731.689635,750.385 C731.844818,750.24 732,749.95 732,749.66 C732,749.515 732,749.37 731.844818,749.225 C731.689635,748.79 731.224089,748.645 730.758542,748.645 L725.79271,748.645 L723.930523,735.015 C723.930523,734.435 723.309794,734 722.689064,734 L717.257685,734 C716.636956,734 716.17141,734.435 716.016227,735.015 L716.016227,735.015 L716.016227,735.015 Z" id="arrow"></path>
        </g>
    </g>
</svg>