<?xml version="1.0" encoding="UTF-8"?>
<svg width="360px" height="177px" viewBox="0 0 360 177" version="1.1" xmlns="http://www.w3.org/2000/svg" xmlns:xlink="http://www.w3.org/1999/xlink">
    <!-- Generator: Sketch 60.1 (88133) - https://sketch.com -->
    <title>logo area</title>
    <desc>Created with Sketch.</desc>
    <g id="Page-1" stroke="none" stroke-width="1" fill="none" fill-rule="evenodd" opacity="0.9">
        <g id="IMGNRY-Large-Copy-5" transform="translate(-540.000000, -262.000000)" fill="#FEFEFE">
            <g id="logo-area" transform="translate(540.000000, 262.000000)">
                <g id="logo">
                    <path d="M333.997188,93.329388 L337.927238,104.158408 C338.910319,106.960624 339.741282,114.532523 339.741282,114.532523 L340.498458,114.532523 C340.498458,114.532523 341.329422,106.960624 342.311367,104.234605 L346.317476,93.329388 L360,93.329388 L346.544515,128.997373 L346.544515,143.310967 L333.69409,143.310967 L333.69409,128.921176 L320.239741,93.329388 L333.997188,93.329388 Z" id="Y"></path>
                    <path d="M302.628642,93.3291606 C314.271218,93.3291606 319.10829,99.2361055 319.10829,108.550291 L319.10829,109.915007 C319.10829,116.04713 316.613128,120.212925 312.152941,122.40898 L312.152941,122.712629 C313.816004,123.621302 314.799084,125.135 315.555125,127.407251 L320.997258,143.310739 L307.46685,143.310739 L301.796543,126.649834 C301.268677,124.983744 300.512636,124.377582 299.227593,124.377582 L298.698592,124.377582 L298.698592,143.310739 L285.848167,143.310739 L285.848167,93.3291606 L302.628642,93.3291606 Z M300.209538,103.930728 L298.698592,103.930728 L298.698592,115.289712 L300.965579,115.289712 C304.594803,115.289712 306.257866,114.30598 306.257866,110.367637 L306.257866,109.61022 C306.257866,105.445562 304.971688,103.930728 300.209538,103.930728 Z" id="R"></path>
                    <path d="M210.570105,120.592088 C210.041104,119.077254 209.359986,115.290167 209.359986,115.290167 L208.754926,115.366364 L209.285063,122.106923 L209.285063,143.311194 L196.434638,143.311194 L196.434638,93.3296155 L211.250088,93.3296155 L219.489344,116.047585 C220.018346,117.562419 220.699464,121.424565 220.699464,121.424565 L221.304524,121.349505 L220.774387,114.53275 L220.774387,93.3296155 L233.624812,93.3296155 L233.624812,143.311194 L218.810497,143.311194 L210.570105,120.592088 Z" id="N"></path>
                    <path d="M134.127786,133.31522 L134.127786,116.047016 L146.978211,116.047016 L146.978211,143.310626 L140.174978,143.310626 L138.511915,140.508409 C135.94183,142.629405 133.598784,144.219299 129.591541,144.219299 C120.369204,144.219299 114.094972,138.842319 114.094972,120.213948 L114.094972,117.56185 C114.094972,97.7984911 121.125245,92.4203736 134.882692,92.4203736 C139.796957,92.4203736 145.542187,93.7839521 145.542187,93.7839521 C145.23909,97.9486098 144.483049,103.477983 144.483049,103.477983 L143.577162,103.930614 C143.577162,103.930614 138.662896,103.021941 136.243792,103.021941 C129.21352,103.021941 127.324553,106.127807 127.324553,118.092952 L127.324553,120.441401 C127.324553,131.951641 128.533537,133.617732 132.161626,133.617732 C132.691762,133.617732 133.371745,133.466476 134.127786,133.31522" id="G"></path>
                    <path d="M65.7626172,93.329388 L65.7626172,143.310967 L52.9121922,143.310967 L52.9121922,126.648924 L53.2141545,115.138684 L52.5341718,115.063624 C52.5341718,115.063624 51.2491293,121.349278 50.4170302,124.37781 L45.4278414,141.796132 L40.6656919,141.796132 L35.676503,124.37781 C34.769481,121.198022 33.6354196,115.063624 33.6354196,115.063624 L32.9554369,115.138684 L33.2573992,126.648924 L33.2573992,143.310967 L20.4069743,143.310967 L20.4069743,93.329388 L37.0376037,93.329388 L40.4386526,105.44579 C41.7236951,109.990293 42.7828334,115.669786 42.7828334,115.669786 L43.311835,115.669786 C43.311835,115.669786 44.3698382,109.990293 45.6548807,105.44579 L49.1319877,93.329388 L65.7626172,93.329388 Z" id="M"></path>
                    <polygon id="I" points="0 93.3297292 12.8504249 93.3297292 12.8504249 143.311308 0 143.311308"></polygon>
                    <path d="M91.8814464,26.1759314 C93.4173673,26.1759314 93.710248,28.8439508 94.9169619,32.7822931 C97.5721867,41.4448267 101.599864,56.2497186 105.322174,62.3613708 C110.336337,70.5894698 110.58608,70.8453541 111.008373,73.3928235 C110.844905,73.904592 108.691437,74.25032 107.627758,74.4083996 C106.727547,74.5391848 104.177895,74.7541276 104.177895,74.7541276 L104.177895,74.7541276 L104.177895,97.0058187 C104.177895,101.608323 96.2644403,108.992572 91.1923821,116.88063 C83.2596286,129.214249 80.6634341,143.307214 80.6634341,143.307214 L80.6634341,143.307214 L79.5861326,143.307214 L79.5861326,74.7541276 C79.5861326,74.7541276 77.0376163,74.5391848 76.1362703,74.4083996 C75.0725911,74.25032 72.9202584,73.904592 72.7556549,73.3928235 C73.1790832,70.8453541 73.4276913,70.5894698 78.4418544,62.3613708 C82.1641639,56.2497186 86.1918413,41.4448267 88.8459308,32.7822931 C90.0537799,28.8439508 90.3477958,26.1759314 91.8814464,26.1759314 Z M91.7838195,82.2612017 C90.1150806,82.2612017 89.4271514,86.3496628 89.4271514,91.4036603 L89.4271514,91.4036603 L94.3368765,91.4036603 C94.3368765,86.3496628 93.4525584,82.2612017 91.7838195,82.2612017 Z" id="tower-left"></path>
                    <path d="M171.61629,0 C173.152211,0 173.446227,2.66801939 174.651805,6.60636173 C177.30703,15.267758 181.335843,30.0760617 185.058152,36.1843022 C190.07345,44.4124012 190.320923,44.6694227 190.744352,47.2157549 C190.579748,47.7275233 188.42628,48.0755258 187.362601,48.2313309 C186.46239,48.3632534 183.912739,48.5793334 183.912739,48.5793334 L183.912739,48.5793334 L183.912739,97.0062736 C183.912739,101.608778 176.000419,108.993027 170.927225,116.879947 C162.994472,129.214704 160.398277,143.307669 160.398277,143.307669 L160.398277,143.307669 L159.320976,143.307669 L159.320976,48.5793334 C159.320976,48.5793334 156.77246,48.3632534 155.872249,48.2313309 C154.80857,48.0755258 152.655102,47.7275233 152.490498,47.2157549 C152.913927,44.6694227 153.162535,44.4124012 158.176698,36.1843022 C161.900142,30.0760617 165.926685,15.267758 168.580774,6.60636173 C169.789758,2.66801939 170.083774,0 171.61629,0 Z M171.519798,56.0841331 C169.849924,56.0841331 169.16313,60.1737314 169.16313,65.2277289 L169.16313,65.2277289 L174.072855,65.2277289 C174.072855,60.1737314 173.188537,56.0841331 171.519798,56.0841331 Z" id="tower-middle"></path>
                    <path d="M258.956609,26.1759314 C260.49253,26.1759314 260.785411,28.8439508 261.992125,32.7822931 C264.64735,41.4448267 268.675027,56.2497186 272.397336,62.3613708 C277.412635,70.5894698 277.661243,70.8453541 278.084671,73.3928235 C277.920068,73.904592 275.767735,74.25032 274.702921,74.4083996 C273.80271,74.5391848 271.253058,74.7541276 271.253058,74.7541276 L271.253058,74.7541276 L271.253058,97.0058187 C271.253058,101.608323 263.339603,108.992572 258.267545,116.88063 C250.333656,129.214249 247.737462,143.307214 247.737462,143.307214 L247.737462,143.307214 L246.662431,143.307214 L246.662431,74.7541276 C246.662431,74.7541276 244.112779,74.5391848 243.212568,74.4083996 C242.147754,74.25032 239.995421,73.904592 239.830818,73.3928235 C240.253111,70.8453541 240.502854,70.5894698 245.515882,62.3613708 C249.238192,56.2497186 253.267004,41.4448267 255.921094,32.7822931 C257.128943,28.8439508 257.421824,26.1759314 258.956609,26.1759314 Z M258.858982,82.2612017 C257.190243,82.2612017 256.502314,86.3496628 256.502314,91.4036603 L256.502314,91.4036603 L261.409769,91.4036603 C261.409769,86.3496628 260.528857,82.2612017 258.858982,82.2612017 Z" id="tower-right"></path>
                    <g id="claim" transform="translate(37.771849, 161.437577)">
                        <polygon id="e" points="265.928646 0.273739244 272.968 0.273739244 272.968 2.20822389 268.200174 2.20822389 268.200174 6.6446875 272.286882 6.6446875 272.286882 8.35058225 268.200174 8.35058225 268.200174 13.3556774 273.195039 13.3556774 273.195039 15.2890248 265.928646 15.2890248"></polygon>
                        <path d="M253.489162,15.2891386 L250.172118,15.2891386 L246.289746,0.273852971 L248.629386,0.273852971 L251.332289,10.7389486 C251.512785,11.4224438 251.71712,12.7860223 251.71712,12.7860223 L251.94416,12.7860223 C251.94416,12.7860223 252.148495,11.4224438 252.330127,10.7389486 L255.031894,0.273852971 L257.371534,0.273852971 L253.489162,15.2891386 Z" id="v"></path>
                        <polygon id="i" points="235.459744 0.273511792 237.731272 0.273511792 237.731272 15.2887974 235.459744 15.2887974"></polygon>
                        <polygon id="l" points="220.089523 0.273739244 222.361051 0.273739244 222.361051 13.3556774 226.902973 13.3556774 226.902973 15.2890248 220.089523 15.2890248"></polygon>
                        <path d="M207.513815,0.274080423 L211.532411,15.289366 L209.193906,15.289366 L208.285749,11.7627129 L203.69842,11.7627129 L202.789127,15.289366 L200.450623,15.289366 L204.469218,0.274080423 L207.513815,0.274080423 Z M206.059629,2.84429518 L205.923405,2.84429518 L205.915402,2.8924349 C205.884206,3.07808399 205.766748,3.7584923 205.650958,4.18740298 L204.196771,9.82936555 L207.786263,9.82936555 L206.332076,4.18740298 C206.196988,3.68700719 206.059629,2.84429518 206.059629,2.84429518 Z" id="a"></path>
                        <polygon id="e" points="173.865795 0.273739244 180.905149 0.273739244 180.905149 2.20822389 176.136188 2.20822389 176.136188 6.6446875 180.224031 6.6446875 180.224031 8.35058225 176.136188 8.35058225 176.136188 13.3556774 181.131053 13.3556774 181.131053 15.2890248 173.865795 15.2890248"></polygon>
                        <path d="M164.105716,0.273739244 L164.105716,15.2890248 L161.835323,15.2890248 L161.835323,6.98472919 C161.835323,6.18864497 161.903435,4.30078812 161.903435,4.30078812 L161.744507,4.27804285 C161.744507,4.27804285 161.402813,5.59840539 161.267724,5.9623296 L158.019927,14.8341196 L157.020954,14.8341196 L153.773157,5.9623296 C153.568821,5.41530602 153.27367,4.27804285 153.27367,4.27804285 L153.114743,4.30078812 C153.114743,4.30078812 153.205559,6.18864497 153.205559,6.98472919 L153.205559,15.2890248 L150.93403,15.2890248 L150.93403,0.273739244 L153.726614,0.273739244 L156.952842,9.03294015 C157.224154,9.73804332 157.473898,10.6933444 157.473898,10.6933444 L157.564713,10.6933444 C157.564713,10.6933444 157.815592,9.78353384 158.088039,9.03294015 L161.311997,0.273739244 L164.105716,0.273739244 Z" id="m"></path>
                        <path d="M136.791298,0.000796084217 C139.992552,0.000796084217 141.560258,2.48116705 141.560258,7.32590814 L141.560258,8.25846394 C141.560258,13.1054796 139.992552,15.561968 136.791298,15.561968 L136.541554,15.561968 C133.361869,15.561968 131.794162,13.1054796 131.794162,8.25846394 L131.794162,7.32590814 C131.794162,2.48116705 133.361869,0.000796084217 136.541554,0.000796084217 L136.791298,0.000796084217 Z M136.700482,1.93528073 L136.63237,1.93528073 C134.860328,1.93528073 134.111099,3.57180243 134.111099,7.19057382 L134.111099,8.37332752 C134.111099,11.9682164 134.883032,13.6274833 136.63237,13.6274833 L136.700482,13.6274833 C138.471388,13.6274833 139.220618,11.9909616 139.220618,8.37332752 L139.220618,7.19057382 C139.220618,3.59568495 138.448685,1.93528073 136.700482,1.93528073 Z" id="o"></path>
                        <path d="M121.738705,15.5623092 C118.490908,15.5623092 116.061587,14.0611218 116.061587,8.46351249 L116.061587,7.66856553 C116.061587,2.13919202 118.354684,-1.95399252e-14 121.670593,-1.95399252e-14 C122.942013,-1.95399252e-14 123.895578,0.320708213 123.895578,0.320708213 C123.827467,1.11565517 123.691243,2.00272044 123.691243,2.00272044 L123.464204,2.13919202 C123.464204,2.13919202 122.669566,1.93562191 121.829521,1.93562191 C119.262841,1.93562191 118.377388,4.18740298 118.377388,7.7129188 L118.377388,8.19170659 C118.377388,12.0584014 119.491016,13.6278245 121.897632,13.6278245 C122.828494,13.6278245 123.827467,13.3560186 123.827467,13.3560186 L124.054506,13.4686077 C124.054506,13.4686077 124.168025,14.1521028 124.258841,15.1074039 C124.258841,15.1074039 123.373388,15.5623092 121.738705,15.5623092" id="c"></path>
                        <path d="M87.0465308,13.3788776 L87.3416819,13.2412688 C87.3416819,13.2412688 88.7039177,13.6279383 90.2035124,13.6279383 C92.292274,13.6279383 93.0869116,12.6498919 93.0869116,11.0349782 C93.0869116,10.0341866 92.610129,9.30520096 91.1797814,8.80594242 L89.5223944,8.23731084 C87.7503526,7.62205147 86.6151561,6.46204304 86.6151561,4.36947881 C86.6151561,1.70714574 88.1590234,0.000113726317 91.4976364,0.000113726317 C92.9052801,0.000113726317 94.2902199,0.296939413 94.2902199,0.296939413 C94.2448121,1.07141563 94.1539963,2.04832469 94.1539963,2.04832469 L93.9053883,2.2086788 C93.9053883,2.2086788 92.7917605,1.93459837 91.6111561,1.93459837 C89.5450984,1.93459837 88.8855492,2.93538996 88.8855492,4.2557525 C88.8855492,5.30203461 89.2488121,5.96278451 90.4294165,6.37106199 L92.0652347,6.93969357 C94.2448121,7.69028726 95.3584399,9.00951253 95.3584399,10.9212519 C95.3584399,13.6506835 94.0631806,15.5624229 90.3613047,15.5624229 C88.6585099,15.5624229 87.2054583,15.1984987 87.1146426,15.1757534 C87.0465308,14.2648056 87.0465308,13.3788776 87.0465308,13.3788776" id="s"></path>
                        <path d="M75.5371135,12.8768897 L75.5371135,7.09959277 L77.8075066,7.09959277 L77.8075066,15.2890248 L76.5587904,15.2890248 L76.2182314,14.356469 C75.4690017,15.0160817 74.401917,15.561968 73.1520656,15.561968 C70.4730017,15.561968 68.3831049,13.8560732 68.3831049,8.35058225 L68.3831049,7.55449804 C68.3831049,1.86590768 70.5638174,0.000796084217 74.2872621,0.000796084217 C75.7641528,0.000796084217 77.3761319,0.434093351 77.3761319,0.434093351 C77.3307241,1.16080451 77.1945005,2.1615961 77.1945005,2.1615961 L76.9674612,2.27645968 C76.9674612,2.27645968 75.4917057,1.93528073 74.4927327,1.93528073 C71.8579415,1.93528073 70.700041,3.232898 70.700041,7.68983235 L70.700041,8.39607278 C70.700041,12.627829 71.8806454,13.6274833 73.5834403,13.6274833 C74.6516602,13.6274833 75.3554821,13.0144985 75.5371135,12.8768897" id="g"></path>
                        <path d="M51.2201818,5.27928935 C51.0385503,4.9381104 50.811511,4.2557525 50.811511,4.2557525 L50.6752874,4.27849776 L50.7888071,5.91615672 L50.7888071,15.2894797 L48.518414,15.2894797 L48.518414,0.274194149 L50.834215,0.274194149 L56.3069975,10.3287378 C56.5113329,10.6937993 56.6929643,11.3079214 56.6929643,11.3079214 L56.8291879,11.2851761 L56.7383722,9.64751717 L56.7383722,0.274194149 L59.0099005,0.274194149 L59.0099005,15.2894797 L56.6929643,15.2894797 L51.2201818,5.27928935 Z" id="n"></path>
                        <polygon id="i" points="36.4858982 0.273511792 38.7562913 0.273511792 38.7562913 15.2887974 36.4858982 15.2887974"></polygon>
                        <polygon id="h" points="24.4538364 8.69210238 19.2307971 8.69210238 19.2307971 15.289366 16.9592688 15.289366 16.9592688 0.274080423 19.2307971 0.274080423 19.2307971 6.75761774 24.4538364 6.75761774 24.4538364 0.274080423 26.7242295 0.274080423 26.7242295 15.289366 24.4538364 15.289366"></polygon>
                        <polygon id="t" points="-1.19904087e-14 0.273739244 8.40158965 0.273739244 8.40158965 2.20822389 5.33655897 2.20822389 5.33655897 15.2890248 3.06503068 15.2890248 3.06503068 2.20822389 -1.19904087e-14 2.20822389"></polygon>
                    </g>
                </g>
            </g>
        </g>
    </g>
</svg>